<svg xmlns="http://www.w3.org/2000/svg" width="16" height="16" viewBox="0 0 16 16">
  <path id="Path_1822" data-name="Path 1822" d="M10.207-8.207a5.741,5.741,0,0,0-.641-.537.5.5,0,0,0-.643.054l-.658.658A1.245,1.245,0,0,0,7.9-7.1a.564.564,0,0,0,.217.394,2.342,2.342,0,0,1,.323.268,2.249,2.249,0,0,1,0,3.182l-2.1,2.1a2.253,2.253,0,0,1-3.2-.016,2.269,2.269,0,0,1,.036-3.186l.409-.409A.5.5,0,0,0,3.7-5.287a5.758,5.758,0,0,1-.3-1.648.5.5,0,0,0-.853-.331l-1.16,1.16a4.755,4.755,0,0,0,0,6.717,4.755,4.755,0,0,0,6.717,0l2.1-2.1.011-.012A4.748,4.748,0,0,0,10.207-8.207Zm4.4-4.4a4.755,4.755,0,0,0-6.717,0l-2.1,2.1-.011.012a4.748,4.748,0,0,0,.011,6.706,5.74,5.74,0,0,0,.641.537.5.5,0,0,0,.643-.054l.658-.658A1.245,1.245,0,0,0,8.1-4.9a.564.564,0,0,0-.217-.394,2.342,2.342,0,0,1-.323-.268,2.249,2.249,0,0,1,0-3.182l2.1-2.1a2.253,2.253,0,0,1,3.2.016,2.269,2.269,0,0,1-.036,3.186l-.409.409a.5.5,0,0,0-.118.519,5.759,5.759,0,0,1,.3,1.648.5.5,0,0,0,.853.331l1.16-1.16A4.755,4.755,0,0,0,14.611-12.611Z" transform="translate(0 14)" fill="#333"/>
</svg>
